<?xml version="1.0" encoding="utf-8"?>
<!-- Generator: Adobe Illustrator 20.1.0, SVG Export Plug-In . SVG Version: 6.00 Build 0)  -->
<svg version="1.1" id="Layer_1" xmlns="http://www.w3.org/2000/svg" xmlns:xlink="http://www.w3.org/1999/xlink" x="0px" y="0px"
	 viewBox="0 0 560.3 176.9" style="enable-background:new 0 0 560.3 176.9;" xml:space="preserve">
<style type="text/css">
	.st0{fill:#4FADD0;stroke:#FFFFFF;stroke-miterlimit:10;}
	.st1{fill:#3983BB;stroke:#FFFFFF;stroke-miterlimit:10;}
	.st2{fill:#2A1B89;stroke:#FFFFFF;stroke-miterlimit:10;}
	.st3{fill:#B5D3E7;stroke:#FFFFFF;stroke-miterlimit:10;}
	.st4{fill:#B8B3D8;stroke:#FFFFFF;stroke-miterlimit:10;}
	.st5{fill:#B03598;stroke:#FFFFFF;stroke-miterlimit:10;}
	.st6{fill:#E8E6F2;stroke:#FFFFFF;stroke-miterlimit:10;}
	.st7{fill:#E5B4D8;stroke:#FFFFFF;stroke-miterlimit:10;}
	.st8{fill:#DE4FA6;stroke:#FFFFFF;stroke-miterlimit:10;}
	.st9{fill:#3983BB;}
	.st10{fill:#B03598;}
	.st11{fill:#2A1B89;}
	.st12{fill:#FFFFFF;}
	.st13{fill:none;stroke:#B03598;stroke-miterlimit:10;}
	.st14{fill:none;stroke:#3983BB;stroke-miterlimit:10;}
</style>
<g>
	<g>
		
			<rect x="222.3" y="90.8" transform="matrix(0.7071 -0.7071 0.7071 0.7071 -5.0084 198.0407)" class="st0" width="28.6" height="28.6"/>
		
			<rect x="243.6" y="69.5" transform="matrix(0.7071 -0.7071 0.7071 0.7071 16.3142 206.8728)" class="st1" width="28.6" height="28.6"/>
		
			<rect x="264.7" y="48.3" transform="matrix(0.7071 -0.7071 0.7071 0.7071 37.4347 215.6212)" class="st2" width="28.6" height="28.6"/>
		
			<rect x="243.3" y="112" transform="matrix(0.7071 -0.7071 0.7071 0.7071 -13.8382 219.167)" class="st3" width="28.6" height="28.6"/>
		
			<rect x="264.7" y="90.7" transform="matrix(0.7071 -0.7071 0.7071 0.7071 7.4845 227.9991)" class="st4" width="28.6" height="28.6"/>
		
			<rect x="285.8" y="69.6" transform="matrix(0.7071 -0.7071 0.7071 0.7071 28.605 236.7475)" class="st5" width="28.6" height="28.6"/>
		
			<rect x="264.6" y="133.4" transform="matrix(0.7071 -0.7071 0.7071 0.7071 -22.7516 240.4954)" class="st6" width="28.6" height="28.6"/>
		
			<rect x="286" y="112.1" transform="matrix(0.7071 -0.7071 0.7071 0.7071 -1.429 249.3276)" class="st7" width="28.6" height="28.6"/>
		
			<rect x="307.1" y="91" transform="matrix(0.7071 -0.7071 0.7071 0.7071 19.6915 258.076)" class="st8" width="28.6" height="28.6"/>
	</g>
	<g>
		<path class="st9" d="M65.4,109.2h-1.9V94.4h1.9v6.7h7.2v-6.7h1.9v14.8h-1.9v-6.5h-7.2V109.2z"/>
		<path class="st9" d="M90.3,96.7c1.2,1.4,1.7,3,1.7,5.3c0,2.3-0.9,4.4-2.5,5.7c-1.3,1.2-3,1.8-4.7,1.8c-2.2,0-4.3-1-5.7-2.8
			c-1-1.3-1.6-2.9-1.6-4.8c0-4.4,3.1-7.7,7.3-7.7C86.9,94.1,88.9,95.1,90.3,96.7z M79.4,101.8c0,3.4,2.3,5.9,5.3,5.9
			c1.5,0,2.9-0.6,3.9-1.8c0.9-1,1.4-2.5,1.4-4.1c0-2-0.5-3.4-1.7-4.5c-1-1-2.3-1.5-3.6-1.5C81.7,95.9,79.4,98.4,79.4,101.8z"/>
		<path class="st9" d="M96.9,109.2h-1.9V94.4h1.9v6.7h7.2v-6.7h1.9v14.8h-1.9v-6.5h-7.2V109.2z"/>
		<path class="st9" d="M111.6,101h5.8v1.6h-5.8v5.1h5.8v1.6h-7.7V94.4h7.7V96h-5.8V101z"/>
		<path class="st9" d="M129.3,109.2h-1.9V94.4h1.8l5.5,11.1l5.5-11.1h1.8v14.8h-1.9V98.4l-5.5,11l-5.5-11V109.2z"/>
		<path class="st9" d="M147.9,109.2h-1.9V94.4h1.9V109.2z"/>
		<path class="st9" d="M153.5,101h5.8v1.6h-5.8v5.1h5.8v1.6h-7.7V94.4h7.7V96h-5.8V101z"/>
		<path class="st9" d="M166.8,109.2H165V96h-3.8v-1.6h9.4V96h-3.7V109.2z"/>
		<path class="st9" d="M174.6,101h5.8v1.6h-5.8v5.1h5.8v1.6h-7.7V94.4h7.7V96h-5.8V101z"/>
		<path class="st9" d="M185.5,109.2h-1.9V94.4h1.7l7.9,11.1V94.4h1.9v14.8h-1.6l-8-11.3V109.2z"/>
	</g>
	<g>
		<path class="st10" d="M363.4,106c0.1,1.7,1,2.6,2.6,2.6c1.7,0,2.8-1,2.8-2.5c0-1.3-0.7-1.9-3-2.7c-1.8-0.6-2.3-0.9-3-1.5
			c-0.8-0.7-1.2-1.7-1.2-2.8c0-2.5,1.8-4.2,4.4-4.2s4.3,1.7,4.4,4.2h-1.9c0-0.8-0.1-1.1-0.4-1.5c-0.4-0.6-1.2-1-2.2-1
			c-1.5,0-2.5,1-2.5,2.4c0,0.7,0.3,1.3,0.8,1.7c0.5,0.3,0.9,0.5,2.4,1c1.6,0.6,2.3,1,2.9,1.6c0.6,0.7,1,1.6,1,2.6
			c0,2.5-1.9,4.3-4.7,4.3c-1.9,0-3.2-0.7-3.9-2c-0.4-0.6-0.5-1.2-0.5-1.9V106H363.4z"/>
		<path class="st10" d="M377.7,110h-1.9V96.8H372v-1.6h9.4v1.6h-3.7V110z"/>
		<path class="st10" d="M385.4,101.7h5.8v1.6h-5.8v5.1h5.8v1.6h-7.7V95.2h7.7v1.6h-5.8V101.7z"/>
		<path class="st10" d="M396.3,110h-1.9V95.2h1.9V110z"/>
		<path class="st10" d="M413.7,102c0,0.3,0,0.7,0,0.8c0,2-0.4,3.3-1.5,4.7c-1.4,1.8-3.3,2.7-5.6,2.7c-4.2,0-7.3-3.2-7.3-7.6
			c0-4.5,3.1-7.7,7.3-7.7c2.2,0,4.2,0.9,5.6,2.7l-1.4,1.1c-0.6-0.6-0.8-0.9-1.2-1.2c-0.8-0.6-1.9-0.9-2.9-0.9c-3.1,0-5.4,2.6-5.4,6
			c0,3.3,2.3,5.9,5.3,5.9c1.6,0,3.3-0.9,4.3-2.2c0.6-0.8,0.8-1.5,1-2.8h-5.1V102H413.7z"/>
		<path class="st10" d="M418.3,101.7h5.8v1.6h-5.8v5.1h5.8v1.6h-7.7V95.2h7.7v1.6h-5.8V101.7z"/>
		<path class="st10" d="M429.2,110h-1.9V95.2h1.7l7.9,11.1V95.2h1.9V110h-1.6l-8-11.3V110z"/>
		<path class="st10" d="M442.7,95.2h3.9c4.5,0,7.1,2.7,7.1,7.2c0,2.5-0.8,4.6-2.3,5.9c-1.3,1.2-3,1.7-5.1,1.7h-3.6V95.2z
			 M444.6,108.4h0.7c2.5,0,3.6-0.3,4.6-1.1c1.3-1.1,2-2.7,2-4.9c0-3.6-1.9-5.6-5.3-5.6h-2V108.4z"/>
		<path class="st10" d="M458.7,101.7h5.8v1.6h-5.8v5.1h5.8v1.6h-7.7V95.2h7.7v1.6h-5.8V101.7z"/>
		<path class="st10" d="M476.5,110h-1.9V95.2h1.8l5.5,11.1l5.5-11.1h1.8V110h-1.9V99.2l-5.5,11l-5.5-11V110z"/>
		<path class="st10" d="M495.1,110h-1.9V95.2h1.9V110z"/>
		<path class="st10" d="M500.6,101.7h5.8v1.6h-5.8v5.1h5.8v1.6h-7.7V95.2h7.7v1.6h-5.8V101.7z"/>
		<path class="st10" d="M514,110h-1.9V96.8h-3.8v-1.6h9.4v1.6H514V110z"/>
		<path class="st10" d="M521.7,101.7h5.8v1.6h-5.8v5.1h5.8v1.6h-7.7V95.2h7.7v1.6h-5.8V101.7z"/>
		<path class="st10" d="M532.6,110h-1.9V95.2h1.7l7.9,11.1V95.2h1.9V110h-1.6l-8-11.3V110z"/>
	</g>
	<g>
		<path class="st11" d="M133.9,27.7H132V12.9h1.9v6.7h7.2v-6.7h1.9v14.8h-1.9v-6.5h-7.2V27.7z"/>
		<path class="st11" d="M158.7,15.2c1.2,1.4,1.7,3,1.7,5.3c0,2.3-0.9,4.4-2.5,5.7c-1.3,1.2-3,1.8-4.7,1.8c-2.2,0-4.3-1-5.7-2.8
			c-1-1.3-1.6-2.9-1.6-4.8c0-4.4,3.1-7.7,7.3-7.7C155.4,12.7,157.3,13.6,158.7,15.2z M147.9,20.3c0,3.4,2.3,5.9,5.3,5.9
			c1.5,0,2.9-0.6,3.9-1.8c0.9-1,1.4-2.5,1.4-4.1c0-2-0.5-3.4-1.7-4.5c-1-1-2.3-1.5-3.6-1.5C150.2,14.4,147.9,16.9,147.9,20.3z"/>
		<path class="st11" d="M165.4,27.7h-1.9V12.9h1.9v6.7h7.2v-6.7h1.9v14.8h-1.9v-6.5h-7.2V27.7z"/>
		<path class="st11" d="M180,19.5h5.8v1.6H180v5.1h5.8v1.6h-7.7V12.9h7.7v1.6H180V19.5z"/>
		<path class="st11" d="M197.5,21.7c0,1.9,0.3,2.8,1,3.5c0.6,0.6,1.7,1,2.6,1s2-0.4,2.6-1.1c0.8-0.8,1-1.5,1-3.5v-8.8h1.9v8.8
			c0,2.2-0.4,3.5-1.3,4.5c-1,1.1-2.5,1.8-4.2,1.8c-1.7,0-3.3-0.7-4.3-1.9c-0.9-1-1.2-2.1-1.2-4.4v-8.8h1.9V21.7z"/>
		<path class="st11" d="M212.1,27.7h-1.9V12.9h1.7l7.9,11.1V12.9h1.9v14.8h-1.6l-8-11.3V27.7z"/>
		<path class="st11" d="M225.6,12.9h3.9c4.5,0,7.1,2.7,7.1,7.2c0,2.5-0.8,4.6-2.3,5.9c-1.3,1.2-3,1.7-5.1,1.7h-3.6V12.9z
			 M227.5,26.1h0.7c2.5,0,3.6-0.3,4.6-1.1c1.3-1.1,2-2.7,2-4.9c0-3.6-1.9-5.6-5.3-5.6h-2V26.1z"/>
		<path class="st11" d="M247.4,23.7c0.1,1.7,1,2.6,2.6,2.6c1.7,0,2.8-1,2.8-2.5c0-1.3-0.7-1.9-3-2.7c-1.8-0.6-2.3-0.9-3-1.5
			c-0.8-0.7-1.2-1.7-1.2-2.8c0-2.5,1.8-4.2,4.4-4.2s4.3,1.7,4.4,4.2h-1.9c0-0.8-0.1-1.1-0.4-1.5c-0.4-0.6-1.2-1-2.2-1
			c-1.5,0-2.5,1-2.5,2.4c0,0.7,0.3,1.3,0.8,1.7c0.5,0.3,0.9,0.5,2.4,1c1.6,0.6,2.3,1,2.9,1.6c0.6,0.7,1,1.6,1,2.6
			c0,2.5-1.9,4.3-4.7,4.3c-1.9,0-3.2-0.7-3.9-2c-0.4-0.6-0.5-1.2-0.5-1.9v-0.3H247.4z"/>
		<path class="st11" d="M261.7,27.7h-1.9V14.5H256v-1.6h9.4v1.6h-3.7V27.7z"/>
		<path class="st11" d="M269.4,19.5h5.8v1.6h-5.8v5.1h5.8v1.6h-7.7V12.9h7.7v1.6h-5.8V19.5z"/>
		<path class="st11" d="M280.3,27.7h-1.9V12.9h1.9V27.7z"/>
		<path class="st11" d="M297.7,19.7c0,0.3,0,0.7,0,0.8c0,2-0.4,3.3-1.5,4.7c-1.4,1.8-3.3,2.7-5.6,2.7c-4.2,0-7.3-3.2-7.3-7.6
			c0-4.5,3.1-7.7,7.3-7.7c2.2,0,4.2,0.9,5.6,2.7l-1.4,1.1c-0.6-0.6-0.8-0.9-1.2-1.2c-0.8-0.6-1.9-0.9-2.9-0.9c-3.1,0-5.4,2.6-5.4,6
			c0,3.3,2.3,5.9,5.3,5.9c1.6,0,3.3-0.9,4.3-2.2c0.6-0.8,0.8-1.5,1-2.8h-5.1v-1.6H297.7z"/>
		<path class="st11" d="M302.3,19.5h5.8v1.6h-5.8v5.1h5.8v1.6h-7.7V12.9h7.7v1.6h-5.8V19.5z"/>
		<path class="st11" d="M313.2,27.7h-1.9V12.9h1.7l7.9,11.1V12.9h1.9v14.8h-1.6l-8-11.3V27.7z"/>
		<path class="st11" d="M326.7,12.9h3.9c4.5,0,7.1,2.7,7.1,7.2c0,2.5-0.8,4.6-2.3,5.9c-1.3,1.2-3,1.7-5.1,1.7h-3.6V12.9z
			 M328.6,26.1h0.7c2.5,0,3.6-0.3,4.6-1.1c1.3-1.1,2-2.7,2-4.9c0-3.6-1.9-5.6-5.3-5.6h-2V26.1z"/>
		<path class="st11" d="M342.7,19.5h5.8v1.6h-5.8v5.1h5.8v1.6h-7.7V12.9h7.7v1.6h-5.8V19.5z"/>
		<path class="st11" d="M360.5,27.7h-1.9V12.9h1.8l5.5,11.1l5.5-11.1h1.8v14.8h-1.9V16.9l-5.5,11l-5.5-11V27.7z"/>
		<path class="st11" d="M379.1,27.7h-1.9V12.9h1.9V27.7z"/>
		<path class="st11" d="M384.6,19.5h5.8v1.6h-5.8v5.1h5.8v1.6h-7.7V12.9h7.7v1.6h-5.8V19.5z"/>
		<path class="st11" d="M398,27.7h-1.9V14.5h-3.8v-1.6h9.4v1.6H398V27.7z"/>
		<path class="st11" d="M405.7,19.5h5.8v1.6h-5.8v5.1h5.8v1.6h-7.7V12.9h7.7v1.6h-5.8V19.5z"/>
		<path class="st11" d="M416.6,27.7h-1.9V12.9h1.7l7.9,11.1V12.9h1.9v14.8h-1.6l-8-11.3V27.7z"/>
	</g>
	<g>
		<line class="st12" x1="305.8" y1="163.8" x2="343.9" y2="125.7"/>
		<g>
			<line class="st13" x1="305.8" y1="163.8" x2="338.9" y2="130.8"/>
			<g>
				<polygon class="st10" points="341.4,135.3 343.9,125.7 334.3,128.3 				"/>
			</g>
		</g>
	</g>
	<g>
		<line class="st14" x1="250.1" y1="163.8" x2="217" y2="130.8"/>
		<g>
			<polygon class="st9" points="221.6,128.3 212,125.7 214.5,135.3 			"/>
		</g>
	</g>
</g>
</svg>
