<?xml version="1.0" encoding="utf-8"?>
<!-- Generator: Adobe Illustrator 20.1.0, SVG Export Plug-In . SVG Version: 6.00 Build 0)  -->
<svg version="1.1" id="Layer_1" xmlns="http://www.w3.org/2000/svg" xmlns:xlink="http://www.w3.org/1999/xlink" x="0px" y="0px"
	 viewBox="0 0 665.8 210.3" style="enable-background:new 0 0 665.8 210.3;" xml:space="preserve">
<style type="text/css">
	.st0{fill:#4FADD0;}
	.st1{fill:#FFFFFF;}
	.st2{fill:#3983BB;}
	.st3{fill:#2A1B89;}
	.st4{fill:#B5D3E7;}
	.st5{fill:#B8B3D8;}
	.st6{fill:#B03598;}
	.st7{fill:#E8E6F2;}
	.st8{fill:#E5B4D8;}
	.st9{fill:#DE4FA6;}
	.st10{fill:none;}
	.st11{enable-background:new    ;}
</style>
<g>
	<g>
		<g>
			
				<rect x="277.7" y="107.3" transform="matrix(0.7071 -0.7071 0.7071 0.7071 -0.2499 241.5417)" class="st0" width="27.5" height="27.5"/>
			<path class="st1" d="M291.4,141.2l-20.2-20.2l20.2-20.2l20.2,20.2L291.4,141.2z M272.7,121.1l18.7,18.7l18.7-18.7l-18.7-18.7
				L272.7,121.1z"/>
		</g>
		<g>
			
				<rect x="298.2" y="86.8" transform="matrix(0.7071 -0.7071 0.7071 0.7071 20.2499 250.0427)" class="st2" width="27.5" height="27.5"/>
			<path class="st1" d="M312,120.7l-20.2-20.2L312,80.4l20.2,20.2L312,120.7z M293.2,100.6l18.7,18.7l18.7-18.7L312,81.8
				L293.2,100.6z"/>
		</g>
		<g>
			
				<rect x="318.6" y="66.5" transform="matrix(0.7071 -0.7071 0.7071 0.7071 40.6204 258.4949)" class="st3" width="27.5" height="27.5"/>
			<path class="st1" d="M332.3,100.4l-20.2-20.2l20.2-20.2l20.2,20.2L332.3,100.4z M313.6,80.2L332.3,99l18.7-18.7l-18.7-18.7
				L313.6,80.2z"/>
		</g>
		<g>
			
				<rect x="298" y="127.7" transform="matrix(0.7071 -0.7071 0.7071 0.7071 -8.7289 261.8585)" class="st4" width="27.5" height="27.5"/>
			<path class="st1" d="M311.7,161.6l-20.2-20.2l20.2-20.2l20.2,20.2L311.7,161.6z M293,141.5l18.7,18.7l18.7-18.7l-18.7-18.7
				L293,141.5z"/>
		</g>
		<g>
			
				<rect x="318.5" y="107.2" transform="matrix(0.7071 -0.7071 0.7071 0.7071 11.7709 270.3596)" class="st5" width="27.5" height="27.5"/>
			<path class="st1" d="M332.2,141.1L312.1,121l20.2-20.2l20.2,20.2L332.2,141.1z M313.5,121l18.7,18.7L351,121l-18.7-18.7
				L313.5,121z"/>
		</g>
		<g>
			
				<rect x="338.8" y="86.9" transform="matrix(0.7071 -0.7071 0.7071 0.7071 32.0707 278.7824)" class="st6" width="27.5" height="27.5"/>
			<path class="st1" d="M352.6,120.8l-20.2-20.2l20.2-20.2l20.2,20.2L352.6,120.8z M333.8,100.7l18.7,18.7l18.7-18.7l-18.7-18.7
				L333.8,100.7z"/>
		</g>
		<g>
			
				<rect x="318.5" y="148.3" transform="matrix(0.7071 -0.7071 0.7071 0.7071 -17.2861 282.3753)" class="st7" width="27.5" height="27.5"/>
			<path class="st1" d="M332.2,182.2l-20.2-20.2l20.2-20.2l20.2,20.2L332.2,182.2z M313.5,162.1l18.7,18.7l18.7-18.7l-18.7-18.7
				L313.5,162.1z"/>
		</g>
		<g>
			
				<rect x="339" y="127.8" transform="matrix(0.7071 -0.7071 0.7071 0.7071 3.2137 290.8764)" class="st8" width="27.5" height="27.5"/>
			<path class="st1" d="M352.7,161.7l-20.2-20.2l20.2-20.2l20.2,20.2L352.7,161.7z M334,141.6l18.7,18.7l18.7-18.7l-18.7-18.7
				L334,141.6z"/>
		</g>
		<g>
			
				<rect x="359.3" y="107.5" transform="matrix(0.7071 -0.7071 0.7071 0.7071 23.5135 299.2993)" class="st9" width="27.5" height="27.5"/>
			<path class="st1" d="M373,141.4l-20.2-20.2l20.2-20.2l20.2,20.2L373,141.4z M354.3,121.3L373,140l18.7-18.7L373,102.5
				L354.3,121.3z"/>
		</g>
	</g>
	<g>
		<rect x="26.5" y="102.8" class="st10" width="229" height="34"/>
	</g>
	<g class="st11">
		<path class="st2" d="M129,128.4h-2.6v-20.5h2.6l7.6,15.4l7.7-15.4h2.5v20.5h-2.6v-15l-7.6,15.2l-7.6-15.3V128.4z"/>
		<path class="st2" d="M154.5,128.4h-2.6v-20.5h2.6V128.4z"/>
		<path class="st2" d="M161.9,117h8.1v2.2h-8.1v7h8.1v2.2h-10.7v-20.5H170v2.2h-8.1V117z"/>
		<path class="st2" d="M180.1,128.4h-2.6v-18.3h-5.2v-2.2h13v2.2h-5.2V128.4z"/>
		<path class="st2" d="M190.7,128.4h-2.6v-20.5h5.5c4.9,0,7.5,2.2,7.5,6.3c0,2-0.8,3.8-2.2,5c-1.2,1-2.8,1.4-5.1,1.4h-3.2V128.4z
			 M193.4,118.3c1.1,0,1.8-0.1,2.6-0.4c1.6-0.6,2.6-2,2.6-3.8c0-1.8-1-3.2-2.6-3.7c-0.8-0.3-1.6-0.4-2.9-0.4h-2.3v8.2H193.4z"/>
		<path class="st2" d="M206.8,128.4h-2.6v-20.5h5.6c4.4,0,7,2.2,7,6c0,2.3-1,4.2-3,5.2c-1,0.5-1.9,0.7-3.8,0.9l8,8.5h-3.3l-8-8.6
			V128.4z M209.4,118c3.1,0,4.8-1.4,4.8-4c0-2.6-1.5-3.9-4.4-3.9h-3v7.9H209.4z"/>
		<path class="st2" d="M223.6,117h8.1v2.2h-8.1v7h8.1v2.2H221v-20.5h10.7v2.2h-8.1V117z"/>
		<path class="st2" d="M238.4,128.4h-2.6v-20.5h2.6V128.4z"/>
		<path class="st2" d="M244.6,122.9c0.1,2.3,1.4,3.6,3.6,3.6c2.3,0,3.9-1.4,3.9-3.5c0-1.8-0.9-2.6-4.2-3.7c-2.4-0.8-3.2-1.2-4.2-2.1
			c-1-1-1.6-2.3-1.6-3.9c0-3.5,2.5-5.8,6.1-5.8c3.6,0,6,2.3,6.1,5.9h-2.6c0-1-0.2-1.5-0.5-2.1c-0.6-0.9-1.7-1.4-3-1.4
			c-2,0-3.5,1.4-3.5,3.4c0,1,0.4,1.8,1.2,2.4c0.6,0.5,1.2,0.7,3.3,1.4c2.2,0.8,3.2,1.3,4.1,2.2c0.9,1,1.4,2.2,1.4,3.6
			c0,3.5-2.6,5.9-6.5,5.9c-2.6,0-4.4-0.9-5.5-2.8c-0.5-0.8-0.7-1.7-0.7-2.7v-0.4H244.6z"/>
	</g>
	<g>
		<rect x="409.4" y="103.9" class="st10" width="259.5" height="34"/>
	</g>
	<g class="st11">
		<path class="st6" d="M414.1,129.5h-2.6V109h2.6l7.6,15.4l7.7-15.4h2.5v20.5h-2.6v-15l-7.6,15.2l-7.6-15.3V129.5z"/>
		<path class="st6" d="M439.6,129.5H437V109h2.6V129.5z"/>
		<path class="st6" d="M447,118.1h8.1v2.2H447v7h8.1v2.2h-10.7V109h10.7v2.2H447V118.1z"/>
		<path class="st6" d="M465.2,129.5h-2.6v-18.3h-5.2V109h13v2.2h-5.2V129.5z"/>
		<path class="st6" d="M474.4,124c0.1,2.3,1.4,3.6,3.6,3.6c2.3,0,3.9-1.4,3.9-3.5c0-1.8-0.9-2.6-4.2-3.7c-2.4-0.8-3.2-1.2-4.2-2.1
			c-1-1-1.6-2.3-1.6-3.9c0-3.5,2.5-5.8,6.1-5.8c3.6,0,6,2.3,6.1,5.9h-2.6c0-1-0.2-1.5-0.5-2.1c-0.6-0.9-1.7-1.4-3-1.4
			c-2,0-3.5,1.4-3.5,3.4c0,1,0.4,1.8,1.2,2.4c0.6,0.5,1.2,0.7,3.3,1.4c2.2,0.8,3.2,1.3,4.1,2.2c0.9,1,1.4,2.2,1.4,3.6
			c0,3.5-2.6,5.9-6.5,5.9c-2.6,0-4.4-0.9-5.5-2.8c-0.5-0.8-0.7-1.7-0.7-2.7V124H474.4z"/>
		<path class="st6" d="M493.9,129.5h-2.6v-18.3h-5.2V109h13v2.2h-5.2V129.5z"/>
		<path class="st6" d="M504.4,118.1h8.1v2.2h-8.1v7h8.1v2.2h-10.7V109h10.7v2.2h-8.1V118.1z"/>
		<path class="st6" d="M519.2,129.5h-2.6V109h2.6V129.5z"/>
		<path class="st6" d="M543,118.4c0,0.4,0,1,0,1.2c0,2.7-0.6,4.6-2.1,6.6c-2,2.5-4.6,3.8-7.7,3.8c-5.8,0-10.1-4.5-10.1-10.6
			c0-6.2,4.2-10.7,10.1-10.7c3.1,0,5.8,1.3,7.7,3.7l-1.9,1.6c-0.8-0.9-1.2-1.3-1.7-1.6c-1.1-0.8-2.6-1.3-4.1-1.3
			c-4.2,0-7.5,3.6-7.5,8.3c0,4.6,3.2,8.2,7.4,8.2c2.3,0,4.6-1.2,5.9-3c0.8-1.1,1.1-2.1,1.3-3.9h-7.1v-2.2H543z"/>
		<path class="st6" d="M549.1,118.1h8.1v2.2h-8.1v7h8.1v2.2h-10.7V109h10.7v2.2h-8.1V118.1z"/>
		<path class="st6" d="M563.9,129.5h-2.6V109h5.6c4.4,0,7,2.2,7,6c0,2.3-1,4.2-3,5.2c-1,0.5-1.9,0.7-3.8,0.9l8,8.5h-3.3l-8-8.6
			V129.5z M566.5,119.2c3.1,0,4.8-1.4,4.8-4c0-2.6-1.5-3.9-4.4-3.9h-3v7.9H566.5z"/>
		<path class="st6" d="M580.5,121.2c0,2.6,0.4,3.9,1.4,4.9c0.9,0.8,2.3,1.4,3.6,1.4s2.7-0.6,3.6-1.5c1.1-1.1,1.4-2.1,1.4-4.9V109
			h2.6v12.2c0,3.1-0.5,4.8-1.8,6.3c-1.4,1.6-3.4,2.4-5.8,2.4c-2.4,0-4.6-0.9-6-2.6c-1.3-1.4-1.7-3-1.7-6.2V109h2.6V121.2z"/>
		<path class="st6" d="M600.5,129.5h-2.6V109h2.4l11,15.5V109h2.6v20.5h-2.3l-11-15.7V129.5z"/>
		<path class="st6" d="M637.7,118.4c0,0.4,0,1,0,1.2c0,2.7-0.6,4.6-2.1,6.6c-2,2.5-4.6,3.8-7.7,3.8c-5.8,0-10.1-4.5-10.1-10.6
			c0-6.2,4.2-10.7,10.1-10.7c3.1,0,5.8,1.3,7.7,3.7l-1.9,1.6c-0.8-0.9-1.2-1.3-1.7-1.6c-1.1-0.8-2.6-1.3-4.1-1.3
			c-4.2,0-7.5,3.6-7.5,8.3c0,4.6,3.2,8.2,7.4,8.2c2.3,0,4.6-1.2,5.9-3c0.8-1.1,1.1-2.1,1.3-3.9h-7.1v-2.2H637.7z"/>
	</g>
	<g>
		<rect x="86.2" y="19.9" class="st10" width="493.2" height="34"/>
	</g>
	<g class="st11">
		<path class="st3" d="M128.3,45.6h-2.6V25.1h2.6v9.2h10v-9.2h2.6v20.5h-2.6v-9.1h-10V45.6z"/>
		<path class="st3" d="M162.6,28.2c1.7,1.9,2.4,4.2,2.4,7.3c0,3.2-1.2,6.1-3.5,8c-1.8,1.6-4.2,2.5-6.6,2.5c-3,0-6-1.4-7.9-3.8
			c-1.4-1.8-2.2-4.1-2.2-6.7c0-6.1,4.3-10.7,10.2-10.7C157.9,24.7,160.6,26,162.6,28.2z M147.5,35.4c0,4.8,3.1,8.2,7.4,8.2
			c2.1,0,4.1-0.9,5.5-2.5c1.2-1.3,2-3.5,2-5.6c0-2.7-0.7-4.7-2.3-6.3c-1.4-1.3-3.2-2.1-5-2.1C150.6,27.1,147.5,30.6,147.5,35.4z"/>
		<path class="st3" d="M171.5,45.6h-2.6V25.1h2.6v9.2h10v-9.2h2.6v20.5h-2.6v-9.1h-10V45.6z"/>
		<path class="st3" d="M191.5,34.2h8.1v2.2h-8.1v7h8.1v2.2h-10.7V25.1h10.7v2.2h-8.1V34.2z"/>
		<path class="st3" d="M215.2,37.3c0,2.6,0.4,3.9,1.4,4.9c0.9,0.8,2.3,1.4,3.6,1.4s2.7-0.6,3.6-1.5c1.1-1.1,1.4-2.1,1.4-4.9V25.1
			h2.6v12.2c0,3.1-0.5,4.8-1.8,6.3c-1.4,1.6-3.4,2.4-5.8,2.4c-2.4,0-4.6-0.9-6-2.6c-1.3-1.4-1.7-3-1.7-6.2V25.1h2.6V37.3z"/>
		<path class="st3" d="M235.1,45.6h-2.6V25.1h2.4l11,15.5V25.1h2.6v20.5h-2.3l-11-15.7V45.6z"/>
		<path class="st3" d="M253.6,25.1h5.4c6.2,0,9.9,3.8,9.9,9.9c0,3.5-1.1,6.4-3.2,8.2c-1.8,1.6-4.2,2.4-7.1,2.4h-5V25.1z M256.1,43.4
			h0.9c3.5,0,5-0.4,6.4-1.5c1.8-1.5,2.8-3.8,2.8-6.8c0-5-2.6-7.8-7.4-7.8h-2.8V43.4z"/>
		<path class="st3" d="M283.1,40.1c0.1,2.3,1.4,3.6,3.6,3.6c2.3,0,3.9-1.4,3.9-3.5c0-1.8-0.9-2.6-4.2-3.7c-2.4-0.8-3.2-1.2-4.2-2.1
			c-1-1-1.6-2.3-1.6-3.9c0-3.5,2.5-5.8,6.1-5.8c3.6,0,6,2.3,6.1,5.9h-2.6c0-1-0.2-1.5-0.5-2.1c-0.6-0.9-1.7-1.4-3-1.4
			c-2,0-3.5,1.4-3.5,3.4c0,1,0.4,1.8,1.2,2.4c0.6,0.5,1.2,0.7,3.3,1.4c2.2,0.8,3.2,1.3,4.1,2.2c0.9,1,1.4,2.2,1.4,3.6
			c0,3.5-2.6,5.9-6.5,5.9c-2.6,0-4.4-0.9-5.5-2.8c-0.5-0.8-0.7-1.7-0.7-2.7v-0.4H283.1z"/>
		<path class="st3" d="M302.7,45.6h-2.6V27.3h-5.2v-2.2h13v2.2h-5.2V45.6z"/>
		<path class="st3" d="M313.1,34.2h8.1v2.2h-8.1v7h8.1v2.2h-10.7V25.1h10.7v2.2h-8.1V34.2z"/>
		<path class="st3" d="M327.9,45.6h-2.6V25.1h2.6V45.6z"/>
		<path class="st3" d="M351.7,34.5c0,0.4,0,1,0,1.2c0,2.7-0.6,4.6-2.1,6.6c-2,2.5-4.6,3.8-7.7,3.8c-5.8,0-10.1-4.5-10.1-10.6
			c0-6.2,4.2-10.7,10.1-10.7c3.1,0,5.8,1.3,7.7,3.7l-1.9,1.6c-0.8-0.9-1.2-1.3-1.7-1.6c-1.1-0.8-2.6-1.3-4.1-1.3
			c-4.2,0-7.5,3.6-7.5,8.3c0,4.6,3.2,8.2,7.4,8.2c2.3,0,4.6-1.2,5.9-3c0.8-1.1,1.1-2.1,1.3-3.9H342v-2.2H351.7z"/>
		<path class="st3" d="M357.9,34.2h8.1v2.2h-8.1v7h8.1v2.2h-10.7V25.1H366v2.2h-8.1V34.2z"/>
		<path class="st3" d="M372.7,45.6h-2.6V25.1h2.4l11,15.5V25.1h2.6v20.5h-2.3l-11-15.7V45.6z"/>
		<path class="st3" d="M391.1,25.1h5.4c6.2,0,9.9,3.8,9.9,9.9c0,3.5-1.1,6.4-3.2,8.2c-1.8,1.6-4.2,2.4-7.1,2.4h-5V25.1z M393.7,43.4
			h0.9c3.5,0,5-0.4,6.4-1.5c1.8-1.5,2.8-3.8,2.8-6.8c0-5-2.6-7.8-7.4-7.8h-2.8V43.4z"/>
		<path class="st3" d="M413,34.2h8.1v2.2H413v7h8.1v2.2h-10.7V25.1h10.7v2.2H413V34.2z"/>
		<path class="st3" d="M437,45.6h-2.6V25.1h2.6l7.6,15.4l7.7-15.4h2.5v20.5h-2.6v-15l-7.6,15.2L437,30.6V45.6z"/>
		<path class="st3" d="M462.5,45.6h-2.6V25.1h2.6V45.6z"/>
		<path class="st3" d="M470,34.2h8.1v2.2H470v7h8.1v2.2h-10.7V25.1H478v2.2H470V34.2z"/>
		<path class="st3" d="M488.1,45.6h-2.6V27.3h-5.2v-2.2h13v2.2h-5.2V45.6z"/>
		<path class="st3" d="M498.6,34.2h8.1v2.2h-8.1v7h8.1v2.2H496V25.1h10.7v2.2h-8.1V34.2z"/>
		<path class="st3" d="M513.4,45.6h-2.6V25.1h2.4l11,15.5V25.1h2.6v20.5h-2.3l-11-15.7V45.6z"/>
	</g>
	<g>
		<g>
			<line class="st10" x1="358.1" y1="177.6" x2="394.8" y2="140.9"/>
		</g>
		<g>
			<g>
				
					<rect x="351.5" y="160.7" transform="matrix(0.7071 -0.7071 0.7071 0.7071 -4.7969 311.8187)" class="st6" width="45" height="2"/>
			</g>
			<g>
				<g>
					<polygon class="st6" points="392.3,150.2 394.8,140.9 385.5,143.4 					"/>
				</g>
			</g>
		</g>
	</g>
	<g>
		<g>
			
				<rect x="287.6" y="139.2" transform="matrix(0.7071 -0.7071 0.7071 0.7071 -29.8099 251.4318)" class="st2" width="2" height="45"/>
		</g>
		<g>
			<g>
				<polygon class="st2" points="277.1,143.4 267.8,140.9 270.3,150.2 				"/>
			</g>
		</g>
	</g>
</g>
</svg>
