<?xml version="1.0" encoding="utf-8"?>
<!-- Generator: Adobe Illustrator 20.1.0, SVG Export Plug-In . SVG Version: 6.00 Build 0)  -->
<svg version="1.1" id="Layer_1" xmlns="http://www.w3.org/2000/svg" xmlns:xlink="http://www.w3.org/1999/xlink" x="0px" y="0px"
	 viewBox="0 0 665.8 210.3" style="enable-background:new 0 0 665.8 210.3;" xml:space="preserve">
<style type="text/css">
	.st0{fill:#4FADD0;stroke:#FFFFFF;stroke-miterlimit:10;}
	.st1{fill:#3983BB;stroke:#FFFFFF;stroke-miterlimit:10;}
	.st2{fill:#2A1B89;stroke:#FFFFFF;stroke-miterlimit:10;}
	.st3{fill:#B5D3E7;stroke:#FFFFFF;stroke-miterlimit:10;}
	.st4{fill:#B8B3D8;stroke:#FFFFFF;stroke-miterlimit:10;}
	.st5{fill:#B03598;stroke:#FFFFFF;stroke-miterlimit:10;}
	.st6{fill:#E8E6F2;stroke:#FFFFFF;stroke-miterlimit:10;}
	.st7{fill:#E5B4D8;stroke:#FFFFFF;stroke-miterlimit:10;}
	.st8{fill:#DE4FA6;stroke:#FFFFFF;stroke-miterlimit:10;}
	.st9{fill:none;}
	.st10{fill:#3983BB;}
	.st11{font-family:'NeuzeitGro-Reg';}
	.st12{font-size:30.7829px;}
	.st13{fill:#B03598;}
	.st14{fill:#2A1B89;}
	.st15{fill:#FFFFFF;}
	.st16{fill:none;stroke:#B03598;stroke-width:2;stroke-miterlimit:10;}
	.st17{fill:none;stroke:#3983BB;stroke-width:2;stroke-miterlimit:10;}
</style>
<g>
	<g>
		
			<rect x="277.7" y="107.3" transform="matrix(0.7071 -0.7071 0.7071 0.7071 -0.2371 241.5623)" class="st0" width="27.5" height="27.5"/>
		
			<rect x="298.2" y="86.8" transform="matrix(0.7071 -0.7071 0.7071 0.7071 20.2745 250.0585)" class="st1" width="27.5" height="27.5"/>
		
			<rect x="318.6" y="66.5" transform="matrix(0.7071 -0.7071 0.7071 0.7071 40.5917 258.4742)" class="st2" width="27.5" height="27.5"/>
		
			<rect x="298" y="127.7" transform="matrix(0.7071 -0.7071 0.7071 0.7071 -8.731 261.8851)" class="st3" width="27.5" height="27.5"/>
		
			<rect x="318.5" y="107.2" transform="matrix(0.7071 -0.7071 0.7071 0.7071 11.7806 270.3813)" class="st4" width="27.5" height="27.5"/>
		
			<rect x="338.8" y="86.9" transform="matrix(0.7071 -0.7071 0.7071 0.7071 32.0978 278.7969)" class="st5" width="27.5" height="27.5"/>
		
			<rect x="318.5" y="148.3" transform="matrix(0.7071 -0.7071 0.7071 0.7071 -17.3054 282.4023)" class="st6" width="27.5" height="27.5"/>
		
			<rect x="339" y="127.8" transform="matrix(0.7071 -0.7071 0.7071 0.7071 3.2062 290.8984)" class="st7" width="27.5" height="27.5"/>
		
			<rect x="359.3" y="107.5" transform="matrix(0.7071 -0.7071 0.7071 0.7071 23.5234 299.3141)" class="st8" width="27.5" height="27.5"/>
	</g>
	<rect x="26.5" y="102.8" class="st9" width="229" height="34"/>
	<text transform="matrix(1 0 0 1 35.8589 128.411)" class="st10 st11 st12">HÖHERE MIETEN</text>
	<rect x="409.4" y="103.9" class="st9" width="259.5" height="34"/>
	<text transform="matrix(1 0 0 1 408.9268 129.5233)" class="st13 st11 st12">STEIGENDE MIETEN</text>
	<rect x="86.2" y="19.9" class="st9" width="493.2" height="34"/>
	<text transform="matrix(1 0 0 1 126.1919 45.6033)" class="st14 st11 st12">HOHE UND STEIGENDE MIETEN</text>
	<g>
		<line class="st15" x1="358.1" y1="177.6" x2="394.8" y2="140.9"/>
		<g>
			<line class="st16" x1="358.1" y1="177.6" x2="389.9" y2="145.8"/>
			<g>
				<polygon class="st13" points="392.3,150.2 394.8,140.9 385.5,143.4 				"/>
			</g>
		</g>
	</g>
	<g>
		<line class="st17" x1="304.5" y1="177.6" x2="272.7" y2="145.8"/>
		<g>
			<polygon class="st10" points="277.1,143.4 267.8,140.9 270.3,150.2 			"/>
		</g>
	</g>
</g>
</svg>
