<svg id="Layer_1" xmlns="http://www.w3.org/2000/svg" viewBox="0 0 665.8 210.3"><style>.st0{fill:#4FADD0;} .st1{fill:#FFFFFF;} .st2{fill:#3983BB;} .st3{fill:#2A1B89;} .st4{fill:#B5D3E7;} .st5{fill:#B8B3D8;} .st6{fill:#B03598;} .st7{fill:#E8E6F2;} .st8{fill:#E5B4D8;} .st9{fill:#DE4FA6;} .st10{fill:none;} .st11{enable-background:new ;}</style><path class="st0" d="M271.984 121.052l19.445-19.445 19.444 19.445-19.445 19.445z"/><path class="st1" d="M291.4 141.2L271.2 121l20.2-20.2 20.2 20.2-20.2 20.2zm-18.7-20.1l18.7 18.7 18.7-18.7-18.7-18.7-18.7 18.7z"/><path class="st2" d="M292.483 100.562l19.446-19.445 19.444 19.445-19.445 19.445z"/><path class="st1" d="M312 120.7l-20.2-20.2L312 80.4l20.2 20.2-20.2 20.1zm-18.8-20.1l18.7 18.7 18.7-18.7L312 81.8l-18.8 18.8z"/><path class="st3" d="M312.925 80.235L332.37 60.79l19.445 19.445L332.37 99.68z"/><path class="st1" d="M332.3 100.4l-20.2-20.2L332.3 60l20.2 20.2-20.2 20.2zm-18.7-20.2L332.3 99 351 80.3l-18.7-18.7-18.7 18.6z"/><path class="st4" d="M292.284 141.44l19.445-19.446 19.444 19.445-19.445 19.445z"/><path class="st1" d="M311.7 161.6l-20.2-20.2 20.2-20.2 20.2 20.2-20.2 20.2zM293 141.5l18.7 18.7 18.7-18.7-18.7-18.7-18.7 18.7z"/><path class="st5" d="M312.783 120.95l19.446-19.446 19.444 19.445-19.445 19.445z"/><path class="st1" d="M332.2 141.1L312.1 121l20.2-20.2 20.2 20.2-20.3 20.1zM313.5 121l18.7 18.7L351 121l-18.7-18.7-18.8 18.7z"/><g><path class="st6" d="M333.083 100.664l19.445-19.445 19.446 19.444-19.446 19.445z"/><path class="st1" d="M352.6 120.8l-20.2-20.2 20.2-20.2 20.2 20.2-20.2 20.2zm-18.8-20.1l18.7 18.7 18.7-18.7L352.5 82l-18.7 18.7z"/></g><g><path class="st7" d="M312.788 162.027l19.445-19.445 19.446 19.445-19.447 19.445z"/><path class="st1" d="M332.2 182.2L312 162l20.2-20.2 20.2 20.2-20.2 20.2zm-18.7-20.1l18.7 18.7 18.7-18.7-18.7-18.7-18.7 18.7z"/></g><g><path class="st8" d="M333.288 141.537l19.445-19.445 19.445 19.445-19.445 19.445z"/><path class="st1" d="M352.7 161.7l-20.2-20.2 20.2-20.2 20.2 20.2-20.2 20.2zM334 141.6l18.7 18.7 18.7-18.7-18.7-18.7-18.7 18.7z"/></g><g><path class="st9" d="M353.588 121.252l19.445-19.446 19.445 19.446-19.445 19.445z"/><path class="st1" d="M373 141.4l-20.2-20.2L373 101l20.2 20.2-20.2 20.2zm-18.7-20.1L373 140l18.7-18.7-18.7-18.8-18.7 18.8z"/></g><g><path class="st10" d="M26.5 102.8h229v34h-229z"/></g><g class="st11"><path class="st2" d="M41 128.4h-2.6v-20.5H41v9.2h10v-9.2h2.6v20.5H51v-9.1H41v9.1zM75.2 111.1c1.7 1.9 2.4 4.2 2.4 7.3 0 3.2-1.2 6.1-3.5 8-1.8 1.6-4.2 2.5-6.6 2.5-3 0-6-1.4-7.9-3.8-1.4-1.8-2.2-4.1-2.2-6.7 0-6.1 4.3-10.7 10.2-10.7 2.9-.2 5.7 1.1 7.6 3.4zm-15.1 7.1c0 4.8 3.1 8.2 7.4 8.2 2.1 0 4.1-.9 5.5-2.5 1.2-1.3 2-3.5 2-5.6 0-2.7-.7-4.7-2.3-6.3-1.4-1.3-3.2-2.1-5-2.1-4.4 0-7.6 3.5-7.6 8.3zm5.9-14c0 .9-.7 1.5-1.6 1.5-.9 0-1.6-.7-1.6-1.6s.7-1.6 1.6-1.6 1.6.8 1.6 1.7zm6.3 0c0 .9-.7 1.5-1.6 1.5-.9 0-1.6-.7-1.6-1.6s.7-1.6 1.6-1.6 1.6.8 1.6 1.7zM84.1 128.4h-2.6v-20.5h2.6v9.2h10v-9.2h2.6v20.5h-2.6v-9.1h-10v9.1zM104.2 117h8.1v2.2h-8.1v7h8.1v2.2h-10.7v-20.5h10.7v2.2h-8.1v6.9zM119 128.4h-2.6v-20.5h5.6c4.4 0 7 2.2 7 6 0 2.3-1 4.2-3 5.2-1 .5-1.9.7-3.8.9l8 8.5h-3.3l-8-8.6v8.5zm2.6-10.4c3.1 0 4.8-1.4 4.8-4s-1.5-3.9-4.4-3.9h-3v7.9h2.6zM135.8 117h8.1v2.2h-8.1v7h8.1v2.2h-10.7v-20.5h10.7v2.2h-8.1v6.9zM159.8 128.4h-2.6v-20.5h2.6l7.6 15.4 7.7-15.4h2.5v20.5H175v-15l-7.6 15.2-7.6-15.3v15.1zM185.3 128.4h-2.6v-20.5h2.6v20.5zM192.8 117h8.1v2.2h-8.1v7h8.1v2.2h-10.7v-20.5h10.7v2.2h-8.1v6.9zM210.9 128.4h-2.6v-18.3h-5.2v-2.2h13v2.2h-5.2v18.3zM221.4 117h8.1v2.2h-8.1v7h8.1v2.2h-10.7v-20.5h10.7v2.2h-8.1v6.9zM236.2 128.4h-2.6v-20.5h2.4l11 15.5v-15.5h2.6v20.5h-2.3l-11-15.7v15.7z"/></g><g><path class="st10" d="M409.4 103.9h259.5v34H409.4z"/></g><g class="st11"><path class="st6" d="M412.6 124c.1 2.3 1.4 3.6 3.6 3.6 2.3 0 3.9-1.4 3.9-3.5 0-1.8-.9-2.6-4.2-3.7-2.4-.8-3.2-1.2-4.2-2.1-1-1-1.6-2.3-1.6-3.9 0-3.5 2.5-5.8 6.1-5.8 3.6 0 6 2.3 6.1 5.9h-2.6c0-1-.2-1.5-.5-2.1-.6-.9-1.7-1.4-3-1.4-2 0-3.5 1.4-3.5 3.4 0 1 .4 1.8 1.2 2.4.6.5 1.2.7 3.3 1.4 2.2.8 3.2 1.3 4.1 2.2.9 1 1.4 2.2 1.4 3.6 0 3.5-2.6 5.9-6.5 5.9-2.6 0-4.4-.9-5.5-2.8-.5-.8-.7-1.7-.7-2.7v-.4h2.6zM432.1 129.5h-2.6v-18.3h-5.2V109h13v2.2h-5.2v18.3zM442.5 118.1h8.1v2.2h-8.1v7h8.1v2.2h-10.7V109h10.7v2.2h-8.1v6.9zM457.3 129.5h-2.6V109h2.6v20.5zM481.2 118.4v1.2c0 2.7-.6 4.6-2.1 6.6-2 2.5-4.6 3.8-7.7 3.8-5.8 0-10.1-4.5-10.1-10.6 0-6.2 4.2-10.7 10.1-10.7 3.1 0 5.8 1.3 7.7 3.7l-1.9 1.6c-.8-.9-1.2-1.3-1.7-1.6-1.1-.8-2.6-1.3-4.1-1.3-4.2 0-7.5 3.6-7.5 8.3 0 4.6 3.2 8.2 7.4 8.2 2.3 0 4.6-1.2 5.9-3 .8-1.1 1.1-2.1 1.3-3.9h-7.1v-2.2h9.8zM487.3 118.1h8.1v2.2h-8.1v7h8.1v2.2h-10.7V109h10.7v2.2h-8.1v6.9zM502.1 129.5h-2.6V109h2.4l11 15.5V109h2.6v20.5h-2.3l-11-15.7v15.7zM520.5 109h5.4c6.2 0 9.9 3.8 9.9 9.9 0 3.5-1.1 6.4-3.2 8.2-1.8 1.6-4.2 2.4-7.1 2.4h-5V109zm2.6 18.3h.9c3.5 0 5-.4 6.4-1.5 1.8-1.5 2.8-3.8 2.8-6.8 0-5-2.6-7.8-7.4-7.8H523v16.1zM542.4 118.1h8.1v2.2h-8.1v7h8.1v2.2h-10.7V109h10.7v2.2h-8.1v6.9zM566.4 129.5h-2.6V109h2.6l7.6 15.4 7.7-15.4h2.5v20.5h-2.6v-15l-7.6 15.2-7.6-15.3v15.1zM591.9 129.5h-2.6V109h2.6v20.5zM599.4 118.1h8.1v2.2h-8.1v7h8.1v2.2h-10.7V109h10.7v2.2h-8.1v6.9zM617.6 129.5H615v-18.3h-5.2V109h13v2.2h-5.2v18.3zM628 118.1h8.1v2.2H628v7h8.1v2.2h-10.7V109h10.7v2.2H628v6.9zM642.8 129.5h-2.6V109h2.4l11 15.5V109h2.6v20.5h-2.3l-11-15.7v15.7z"/></g><g><path class="st10" d="M86.2 19.9h493.2v34H86.2z"/></g><g class="st11"><path class="st3" d="M131.3 45.6h-2.6V25.1h2.6v9.2h10v-9.2h2.6v20.5h-2.6v-9.1h-10v9.1zM165.6 28.2c1.7 1.9 2.4 4.2 2.4 7.3 0 3.2-1.2 6.1-3.5 8-1.8 1.6-4.2 2.5-6.6 2.5-3 0-6-1.4-7.9-3.8-1.4-1.8-2.2-4.1-2.2-6.7 0-6.1 4.3-10.7 10.2-10.7 2.9-.1 5.6 1.2 7.6 3.4zm-15.1 7.2c0 4.8 3.1 8.2 7.4 8.2 2.1 0 4.1-.9 5.5-2.5 1.2-1.3 2-3.5 2-5.6 0-2.7-.7-4.7-2.3-6.3-1.4-1.3-3.2-2.1-5-2.1-4.5 0-7.6 3.5-7.6 8.3zM174.5 45.6h-2.6V25.1h2.6v9.2h10v-9.2h2.6v20.5h-2.6v-9.1h-10v9.1zM194.5 34.2h8.1v2.2h-8.1v7h8.1v2.2h-10.7V25.1h10.7v2.2h-8.1v6.9zM218.2 37.3c0 2.6.4 3.9 1.4 4.9.9.8 2.3 1.4 3.6 1.4s2.7-.6 3.6-1.5c1.1-1.1 1.4-2.1 1.4-4.9V25.1h2.6v12.2c0 3.1-.5 4.8-1.8 6.3-1.4 1.6-3.4 2.4-5.8 2.4s-4.6-.9-6-2.6c-1.3-1.4-1.7-3-1.7-6.2V25.1h2.6v12.2zM238.1 45.6h-2.6V25.1h2.4l11 15.5V25.1h2.6v20.5h-2.3l-11-15.7v15.7zM256.6 25.1h5.4c6.2 0 9.9 3.8 9.9 9.9 0 3.5-1.1 6.4-3.2 8.2-1.8 1.6-4.2 2.4-7.1 2.4h-5V25.1zm2.5 18.3h.9c3.5 0 5-.4 6.4-1.5 1.8-1.5 2.8-3.8 2.8-6.8 0-5-2.6-7.8-7.4-7.8H259v16.1zM286.1 40.1c.1 2.3 1.4 3.6 3.6 3.6 2.3 0 3.9-1.4 3.9-3.5 0-1.8-.9-2.6-4.2-3.7-2.4-.8-3.2-1.2-4.2-2.1-1-1-1.6-2.3-1.6-3.9 0-3.5 2.5-5.8 6.1-5.8 3.6 0 6 2.3 6.1 5.9h-2.6c0-1-.2-1.5-.5-2.1-.6-.9-1.7-1.4-3-1.4-2 0-3.5 1.4-3.5 3.4 0 1 .4 1.8 1.2 2.4.6.5 1.2.7 3.3 1.4 2.2.8 3.2 1.3 4.1 2.2.9 1 1.4 2.2 1.4 3.6 0 3.5-2.6 5.9-6.5 5.9-2.6 0-4.4-.9-5.5-2.8-.5-.8-.7-1.7-.7-2.7v-.4h2.6zM305.7 45.6h-2.6V27.3h-5.2v-2.2h13v2.2h-5.2v18.3zM316.1 34.2h8.1v2.2h-8.1v7h8.1v2.2h-10.7V25.1h10.7v2.2h-8.1v6.9zM330.9 45.6h-2.6V25.1h2.6v20.5zM354.7 34.5v1.2c0 2.7-.6 4.6-2.1 6.6-2 2.5-4.6 3.8-7.7 3.8-5.8 0-10.1-4.5-10.1-10.6 0-6.2 4.2-10.7 10.1-10.7 3.1 0 5.8 1.3 7.7 3.7l-1.9 1.6c-.8-.9-1.2-1.3-1.7-1.6-1.1-.8-2.6-1.3-4.1-1.3-4.2 0-7.5 3.6-7.5 8.3 0 4.6 3.2 8.2 7.4 8.2 2.3 0 4.6-1.2 5.9-3 .8-1.1 1.1-2.1 1.3-3.9h-7v-2.2h9.7zM360.9 34.2h8.1v2.2h-8.1v7h8.1v2.2h-10.7V25.1H369v2.2h-8.1v6.9zM375.7 45.6h-2.6V25.1h2.4l11 15.5V25.1h2.6v20.5h-2.3l-11-15.7v15.7zM394.1 25.1h5.4c6.2 0 9.9 3.8 9.9 9.9 0 3.5-1.1 6.4-3.2 8.2-1.8 1.6-4.2 2.4-7.1 2.4h-5V25.1zm2.6 18.3h.9c3.5 0 5-.4 6.4-1.5 1.8-1.5 2.8-3.8 2.8-6.8 0-5-2.6-7.8-7.4-7.8h-2.8v16.1zM416 34.2h8.1v2.2H416v7h8.1v2.2h-10.7V25.1h10.7v2.2H416v6.9zM440 45.6h-2.6V25.1h2.6l7.6 15.4 7.7-15.4h2.5v20.5h-2.6v-15l-7.6 15.2-7.6-15.2v15zM465.5 45.6h-2.6V25.1h2.6v20.5zM473 34.2h8.1v2.2H473v7h8.1v2.2h-10.7V25.1H481v2.2h-8v6.9zM491.1 45.6h-2.6V27.3h-5.2v-2.2h13v2.2h-5.2v18.3zM501.6 34.2h8.1v2.2h-8.1v7h8.1v2.2H499V25.1h10.7v2.2h-8.1v6.9zM516.4 45.6h-2.6V25.1h2.4l11 15.5V25.1h2.6v20.5h-2.3l-11-15.7v15.7z"/></g><g><path class="st10" d="M358.1 177.6l36.7-36.7"/><path class="st6" d="M357.38 176.904l31.82-31.82 1.413 1.415-31.82 31.818z"/><path class="st6" d="M392.3 150.2l2.5-9.3-9.3 2.5z"/></g><g><path class="st2" d="M271.98 146.498l1.415-1.414 31.82 31.82-1.415 1.414z"/><path class="st2" d="M277.1 143.4l-9.3-2.5 2.5 9.3z"/></g></svg>